<svg width="40" height="40" viewBox="0 0 40 40" fill="none" xmlns="http://www.w3.org/2000/svg">
  <!-- Background circle with gradient -->
  <defs>
    <linearGradient id="logoGradient" x1="0%" y1="0%" x2="100%" y2="100%">
      <stop offset="0%" style="stop-color:#6366f1;stop-opacity:1" />
      <stop offset="100%" style="stop-color:#8b5cf6;stop-opacity:1" />
    </linearGradient>
  </defs>
  
  <!-- Main circle background -->
  <circle cx="20" cy="20" r="18" fill="url(#logoGradient)" stroke="#e5e7eb" stroke-width="1"/>
  
  <!-- AI Brain/Neural Network representation -->
  <g stroke="white" stroke-width="1.5" fill="none" opacity="0.9">
    <!-- Central node -->
    <circle cx="20" cy="20" r="3" fill="white"/>
    
    <!-- Neural connections -->
    <path d="M20 17 L16 14" stroke-linecap="round"/>
    <path d="M20 17 L24 14" stroke-linecap="round"/>
    <path d="M20 23 L16 26" stroke-linecap="round"/>
    <path d="M20 23 L24 26" stroke-linecap="round"/>
    <path d="M17 20 L14 20" stroke-linecap="round"/>
    <path d="M23 20 L26 20" stroke-linecap="round"/>
    
    <!-- Outer nodes -->
    <circle cx="16" cy="14" r="1.5" fill="white"/>
    <circle cx="24" cy="14" r="1.5" fill="white"/>
    <circle cx="16" cy="26" r="1.5" fill="white"/>
    <circle cx="24" cy="26" r="1.5" fill="white"/>
    <circle cx="14" cy="20" r="1.5" fill="white"/>
    <circle cx="26" cy="20" r="1.5" fill="white"/>
  </g>
  
  <!-- Content/Text representation -->
  <g fill="white" opacity="0.8">
    <!-- Document lines -->
    <rect x="12" y="28" width="8" height="1" rx="0.5"/>
    <rect x="12" y="30" width="6" height="1" rx="0.5"/>
    <rect x="12" y="32" width="7" height="1" rx="0.5"/>
  </g>
  
  <!-- Sparkle effect -->
  <g fill="white" opacity="0.6">
    <circle cx="8" cy="8" r="0.8"/>
    <circle cx="32" cy="12" r="0.6"/>
    <circle cx="30" cy="30" r="0.7"/>
  </g>
</svg>
