<svg width="120" height="120" viewBox="0 0 120 120" fill="none" xmlns="http://www.w3.org/2000/svg">
  <!-- Background circle with gradient -->
  <defs>
    <linearGradient id="logoGradientLarge" x1="0%" y1="0%" x2="100%" y2="100%">
      <stop offset="0%" style="stop-color:#6366f1;stop-opacity:1" />
      <stop offset="100%" style="stop-color:#8b5cf6;stop-opacity:1" />
    </linearGradient>
  </defs>
  
  <!-- Main circle background -->
  <circle cx="60" cy="60" r="54" fill="url(#logoGradientLarge)" stroke="#e5e7eb" stroke-width="2"/>
  
  <!-- AI Brain/Neural Network representation -->
  <g stroke="white" stroke-width="3" fill="none" opacity="0.9">
    <!-- Central node -->
    <circle cx="60" cy="60" r="8" fill="white"/>
    
    <!-- Neural connections -->
    <path d="M60 51 L48 42" stroke-linecap="round"/>
    <path d="M60 51 L72 42" stroke-linecap="round"/>
    <path d="M60 69 L48 78" stroke-linecap="round"/>
    <path d="M60 69 L72 78" stroke-linecap="round"/>
    <path d="M51 60 L42 60" stroke-linecap="round"/>
    <path d="M69 60 L78 60" stroke-linecap="round"/>
    
    <!-- Outer nodes -->
    <circle cx="48" cy="42" r="4" fill="white"/>
    <circle cx="72" cy="42" r="4" fill="white"/>
    <circle cx="48" cy="78" r="4" fill="white"/>
    <circle cx="72" cy="78" r="4" fill="white"/>
    <circle cx="42" cy="60" r="4" fill="white"/>
    <circle cx="78" cy="60" r="4" fill="white"/>
  </g>
  
  <!-- Content/Text representation -->
  <g fill="white" opacity="0.8">
    <!-- Document lines -->
    <rect x="36" y="84" width="24" height="2" rx="1"/>
    <rect x="36" y="90" width="18" height="2" rx="1"/>
    <rect x="36" y="96" width="21" height="2" rx="1"/>
  </g>
  
  <!-- Sparkle effect -->
  <g fill="white" opacity="0.6">
    <circle cx="24" cy="24" r="2"/>
    <circle cx="96" cy="36" r="1.5"/>
    <circle cx="90" cy="90" r="2"/>
  </g>
</svg>
